<svg width="1078" height="742" viewBox="0 0 1078 742" fill="none" xmlns="http://www.w3.org/2000/svg">
<mask id="mask0_1_37" style="mask-type:luminance" maskUnits="userSpaceOnUse" x="0" y="0" width="1078" height="742">
<path d="M1078 0H0V742H1078V0Z" fill="white"/>
</mask>
<g mask="url(#mask0_1_37)">
<path d="M665.338 11.9614V276.231L451.226 660.734L451.128 660.857L417.758 720.789V456.397L665.338 11.9614Z" fill="url(#paint0_linear_1_37)"/>
<path d="M1073.5 7.89401V740.645H825.923V452.329L1073.5 7.89401Z" fill="url(#paint1_linear_1_37)"/>
<path d="M672.086 0L639.891 35.5153L639.793 35.6387C639.467 35.9183 639.17 36.2499 638.912 36.6252H638.814L20.2558 719.68H20.1677C19.8742 720.037 19.6785 720.284 19.5806 720.284V720.419C19.4421 720.529 19.3112 720.653 19.1892 720.789L0.0090332 742L49.3293 653.582C49.525 653.088 49.8186 652.718 50.0143 652.225L413.36 0H672.086Z" fill="url(#paint2_linear_1_37)"/>
<path d="M672.086 0L665.334 11.9618L417.754 456.397L258.736 742H0L20.1587 719.68H20.2565L638.815 36.6252L665.334 7.39893L672.086 0Z" fill="url(#paint3_linear_1_37)"/>
<path d="M1078.01 0L1073.51 4.93262L1033.58 49.0926L1033.48 49.2159L1033.09 49.5734C1033 49.8324 1032.9 49.8324 1032.8 49.9557C1032.7 50.0791 1032.7 50.079 1032.6 50.079V50.2025L1031.82 50.9424C1031.48 51.229 1031.15 51.5596 1030.84 51.9289L825.932 278.216L665.348 455.546L438.905 705.387L438.122 706.374C437.852 706.734 437.558 707.064 437.242 707.36L417.768 728.817L405.927 742.012L417.768 720.802L451.137 660.87L451.235 660.746L665.348 276.231L819.278 0H1078.01Z" fill="url(#paint4_linear_1_37)"/>
<path d="M1078.01 0L1073.51 7.89229L825.933 452.328L665.349 740.644L664.664 742H405.918L417.759 728.805L438.896 705.375L665.339 455.534L825.923 278.204L1030.83 51.9164L1031.81 50.9299L1031.91 50.8067L1032.59 50.19V50.0668C1032.69 50.0668 1032.69 49.9435 1032.79 49.9435L1073.5 4.92038L1078.01 0Z" fill="url(#paint5_linear_1_37)"/>
<g style="mix-blend-mode:multiply" opacity="0.24">
<path d="M665.338 11.9614V246.881L417.758 481.924V456.397L665.338 11.9614Z" fill="#16120E"/>
</g>
<g style="mix-blend-mode:multiply" opacity="0.24">
<path d="M1073.5 7.89401V240.1L1072.03 241.456L825.923 475.143V452.329L1073.5 7.89401Z" fill="#16120E"/>
</g>
<g style="mix-blend-mode:overlay">
<path d="M638.811 36.6249L20.2523 719.68C20.1544 719.803 20.1544 719.68 20.1544 719.68C22.8945 716.227 31.5059 705.868 44.8146 689.96C61.3525 670.599 84.6426 642.36 113.217 609.557C141.792 576.755 174.966 538.033 210.977 497.462C246.989 456.631 285.643 413.729 324.394 370.692C343.77 349.358 363.244 328.024 382.424 307.048C401.604 286.071 420.588 265.625 438.888 245.771C475.584 206.063 510.422 169.919 539.975 138.362C569.528 106.805 594.775 81.6357 612.194 63.4957L638.811 36.6249Z" fill="white"/>
</g>
<g style="mix-blend-mode:overlay">
<path d="M1006.96 75.8274C1018.6 64.1123 1026.82 55.8499 1030.83 51.9161L825.915 278.204L665.33 455.534L438.888 705.375C442.117 701.429 450.141 691.81 461.884 677.616C477.737 659.008 500.049 631.878 527.547 600.309C555.045 568.739 586.751 531.621 621.392 492.529C656.034 453.438 693.122 412.126 730.21 370.815C748.901 350.209 767.592 329.75 785.989 309.65C804.386 289.549 822.685 269.818 840.3 250.827C875.529 212.722 909.094 177.947 937.472 147.734C965.851 117.521 990.222 93.2275 1006.96 75.8274Z" fill="white"/>
</g>
<g style="mix-blend-mode:screen" opacity="0.4">
<path d="M1032.79 49.9441C1032.79 50.0674 1032.69 50.0673 1032.59 50.1906L1031.81 50.9305C1032.06 50.6086 1032.31 50.3193 1032.59 50.0673C1032.69 50.0673 1032.69 49.9441 1032.79 49.9441Z" fill="white"/>
</g>
<g style="mix-blend-mode:multiply" opacity="0.25">
<path d="M672.086 0C669.836 4.43942 667.585 8.7555 665.334 13.0716C651.243 40.4357 636.955 67.5779 622.766 94.831C606.326 126.4 589.495 157.723 572.663 189.045C539.196 251.675 505.435 314.073 471.38 376.241L420.005 469.346L417.754 473.415V456.397L258.736 742H0C43.0574 739.657 86.2126 738.658 129.368 736.944L255.311 734.231C271.555 704.018 288.093 674.04 304.435 643.963L355.713 550.982L407.381 458.111L459.344 365.623C494.083 304.088 529.214 242.84 564.737 181.881C582.351 151.409 599.965 120.839 617.971 90.6259C635.977 60.4131 653.787 30.0031 672.086 0Z" fill="#16120E"/>
</g>
<g style="mix-blend-mode:multiply" opacity="0.25">
<path d="M1078.01 0C1076.54 2.95961 1075.07 5.91912 1073.51 8.75541C1058.83 37.6116 1043.66 66.2214 1028.69 94.831C1012.35 126.4 995.418 157.723 978.684 189.045C945.222 251.675 911.428 314.073 877.309 376.241L825.933 469.346V452.328L665.349 740.644L664.664 742H405.918C449.074 739.657 492.131 738.658 535.286 736.944L661.327 734.231C677.473 704.018 694.011 674.04 710.354 643.963L761.729 550.982L813.3 458.111L865.262 365.623C900.002 304.088 935.133 242.84 970.655 181.881C988.264 151.409 1005.88 120.839 1023.98 90.6259C1041.89 60.3021 1059.7 30.0031 1078.01 0Z" fill="#16120E"/>
</g>
<g style="mix-blend-mode:multiply" opacity="0.25">
<path d="M1073.5 208.037V740.645H825.923C846.571 739.042 867.218 738.055 887.866 736.945C908.514 735.835 929.065 735.095 949.712 734.232C988.558 732.876 1027.31 732.136 1066.16 731.519C1065.87 690.196 1065.67 648.897 1065.77 607.462C1065.87 563.068 1066.06 518.674 1066.65 474.279C1067.24 429.885 1067.82 385.602 1069 341.22C1069.39 319.023 1070.17 296.826 1070.95 274.629C1071.25 263.53 1071.64 252.567 1072.03 241.469C1072.42 230.37 1072.91 219.124 1073.5 208.037Z" fill="#16120E"/>
</g>
<g style="mix-blend-mode:overlay">
<path d="M1001.68 0.000669764C971.25 1.96142 940.816 2.83685 910.48 4.31666C881.025 5.54983 851.668 6.04319 822.311 6.90641C807.926 33.9129 793.638 60.9193 778.96 87.5558L733.456 170.671L687.561 253.417L641.372 335.917L594.596 417.923L547.331 499.312C531.478 526.442 515.82 553.683 499.674 580.455C483.527 607.227 467.674 634.221 451.234 660.734L665.347 276.219L819.277 -0.0117493L1001.68 0.000669764Z" fill="white"/>
</g>
<g style="mix-blend-mode:overlay">
<path d="M629.822 0C593.712 2.21971 557.603 3.20617 521.591 4.93262L416.688 7.65803C402.498 34.1589 388.015 60.4253 373.728 86.9509L328.616 168.945L283.112 250.716L237.315 332.106L191.126 413.125L144.35 493.639C128.693 520.535 113.231 547.418 97.1827 573.931C81.3297 600.555 65.4768 627.204 49.3303 653.594C49.526 653.101 49.8196 652.731 50.0153 652.237L413.361 0.0122309L629.822 0Z" fill="white"/>
</g>
</g>
<defs>
<linearGradient id="paint0_linear_1_37" x1="541.548" y1="618.717" x2="541.548" y2="227.445" gradientUnits="userSpaceOnUse">
<stop stop-color="#AFC397"/>
<stop offset="1" stop-color="#A53826"/>
</linearGradient>
<linearGradient id="paint1_linear_1_37" x1="949.712" y1="734.051" x2="949.712" y2="219.659" gradientUnits="userSpaceOnUse">
<stop stop-color="#389291"/>
<stop offset="0.238" stop-color="#00EFFC"/>
<stop offset="0.44" stop-color="#00E5F4"/>
<stop offset="0.629" stop-color="#00D3E7"/>
<stop offset="0.81" stop-color="#00BAD4"/>
<stop offset="0.983" stop-color="#009BBC"/>
<stop offset="1" stop-color="#0098BA"/>
</linearGradient>
<linearGradient id="paint2_linear_1_37" x1="263.463" y1="327.222" x2="655.671" y2="-50.228" gradientUnits="userSpaceOnUse">
<stop stop-color="#AA6687"/>
<stop offset="0.074" stop-color="#F803CC"/>
<stop offset="0.293" stop-color="#F9029D"/>
<stop offset="0.501" stop-color="#FA0178"/>
<stop offset="0.695" stop-color="#FB005D"/>
<stop offset="0.867" stop-color="#FB004D"/>
<stop offset="1" stop-color="#FC0048"/>
</linearGradient>
<linearGradient id="paint3_linear_1_37" x1="0" y1="371" x2="672.086" y2="371" gradientUnits="userSpaceOnUse">
<stop stop-color="#3ECEDE"/>
<stop offset="0.074" stop-color="#F803CC"/>
<stop offset="0.293" stop-color="#F9029D"/>
<stop offset="0.501" stop-color="#FA0178"/>
<stop offset="0.695" stop-color="#FB005D"/>
<stop offset="0.867" stop-color="#FB004D"/>
<stop offset="1" stop-color="#FC0048"/>
</linearGradient>
<linearGradient id="paint4_linear_1_37" x1="736.594" y1="319.065" x2="1094.2" y2="-121.995" gradientUnits="userSpaceOnUse">
<stop stop-color="#422C23"/>
<stop offset="1" stop-color="#F8A700"/>
</linearGradient>
<linearGradient id="paint5_linear_1_37" x1="405.918" y1="371" x2="1078.01" y2="371" gradientUnits="userSpaceOnUse">
<stop stop-color="#D6B340"/>
<stop offset="1" stop-color="#F8A700"/>
</linearGradient>
</defs>
</svg>
